PathFileType	4	(X/Y/Z)	C:/Users/opensim2020/Desktop/walking_exp_matlab/subject03_walking10_straight_01.trc	
DataRate	CameraRate	NumFrames	NumMarkers	Units	OrigDataRate	OrigDataStartFrame	OrigNumFrames	
100.00	100.00	4	45	mm	100.00	897	477	
Frame#	Time	LFHD			RFHD			LBHD			RBHD			C7			T10			CLAV			STRN			RBAK			LSHO			LUPA			LELB			LFRM			LWRA			LWRB			LFIN			RSHO			RUPA			RELB			RFRM			RWRA			RWRB			RFIN			LASI			RASI			LPSI			RPSI			LTHI			LKNE			LTIB			LANK			LHEE			LTOE			RTHI			RKNE			RTIB			RANK			RHEE			RTOE			*39			*40			*41			*42			*43			*44			
		X1	Y1	Z1	X2	Y2	Z2	X3	Y3	Z3	X4	Y4	Z4	X5	Y5	Z5	X6	Y6	Z6	X7	Y7	Z7	X8	Y8	Z8	X9	Y9	Z9	X10	Y10	Z10	X11	Y11	Z11	X12	Y12	Z12	X13	Y13	Z13	X14	Y14	Z14	X15	Y15	Z15	X16	Y16	Z16	X17	Y17	Z17	X18	Y18	Z18	X19	Y19	Z19	X20	Y20	Z20	X21	Y21	Z21	X22	Y22	Z22	X23	Y23	Z23	X24	Y24	Z24	X25	Y25	Z25	X26	Y26	Z26	X27	Y27	Z27	X28	Y28	Z28	X29	Y29	Z29	X30	Y30	Z30	X31	Y31	Z31	X32	Y32	Z32	X33	Y33	Z33	X34	Y34	Z34	X35	Y35	Z35	X36	Y36	Z36	X37	Y37	Z37	X38	Y38	Z38	X39	Y39	Z39	X40	Y40	Z40	X41	Y41	Z41	X42	Y42	Z42	X43	Y43	Z43	X44	Y44	Z44	X45	Y45	Z45	

239	2.380	1385.69653	-108.40573	1612.07190	1518.93005	-114.43541	1617.49194	1385.82837	-238.53166	1574.06445	1517.03357	-239.42900	1579.15283	1454.71936	-275.11130	1414.09705	1457.99072	-317.60657	1101.93494	1444.24561	-156.37125	1334.76306	1437.33228	-117.85378	1168.37878	1558.85315	-322.16351	1241.13098	1292.50281	-216.18243	1372.57410	1227.32019	-246.76868	1174.94043	1214.72034	-248.25890	1052.02429	1208.15222	-205.53119	930.16321	1231.77832	-155.60710	821.35065	1193.05103	-195.60773	817.08875	1197.25720	-159.47603	740.81494	1606.44434	-184.14690	1359.79297	1677.76086	-143.77420	1142.25330	1686.02087	-102.95148	1036.91272	1677.77637	-50.90689	910.44342	1631.63745	-1.88235	828.82581	1678.79626	-23.59004	813.78595	1661.09277	16.91700	753.12897	1332.96191	-161.19528	934.43365	1569.09094	-150.92937	934.17780	1386.61157	-322.39398	954.26947	1536.30286	-313.63837	969.42010	1283.42456	-157.19635	634.64581	1328.18652	-90.63523	471.36896	1326.92053	-85.66951	279.59982	1360.37000	-34.04158	73.93330	1402.47266	-62.94156	33.91084	1371.87708	118.85131	63.88621	1604.79980	-237.41344	643.81598	1566.99878	-253.37196	465.01096	1566.09998	-332.81598	288.68637	1511.26965	-394.88303	81.37936	1458.67627	-440.87567	53.62988	1499.79883	-256.29608	36.81963																		 
240	2.390	1384.87878	-101.72682	1611.37769	1518.12097	-107.85453	1616.83875	1384.97632	-231.76172	1573.11340	1516.18018	-232.80247	1578.35730	1453.81433	-268.20807	1413.31946	1456.89038	-310.70850	1101.17871	1443.71179	-149.46840	1333.90002	1437.11084	-110.64786	1167.81116	1557.95447	-315.89297	1240.46826	1291.72571	-208.79784	1371.56030	1227.18103	-239.46690	1173.64636	1215.04309	-241.03484	1050.60522	1208.75610	-199.15538	928.45490	1232.12036	-149.03319	819.98901	1193.99597	-190.05551	815.21307	1198.50317	-154.44492	738.63025	1605.79700	-177.68019	1359.01318	1676.88916	-137.69958	1141.26233	1684.94775	-96.95211	1035.85303	1676.19434	-44.81384	909.43524	1629.60449	4.20049	827.94690	1676.79932	-17.46025	812.83344	1658.74048	23.13367	752.29761	1332.42224	-153.97479	933.37988	1568.67542	-144.53212	933.39301	1385.55029	-315.48349	953.56396	1535.23816	-307.21960	968.76965	1283.97205	-151.41628	633.05200	1329.57166	-85.11280	470.10443	1327.62793	-77.06675	279.05716	1359.85925	-21.97293	74.38010	1402.11780	-49.64243	33.45879	1371.23889	131.59372	66.48396	1604.28418	-231.97725	643.34576	1566.87146	-248.72443	464.49246	1566.04810	-330.03030	288.87372	1511.43494	-394.45914	82.13189	1458.80188	-440.67175	54.84640	1499.88147	-256.16116	36.76263																		 
241	2.400	1383.96533	-95.08172	1610.59692	1517.27380	-101.20061	1616.27466	1384.09753	-225.00970	1572.22046	1515.26355	-226.10626	1577.55676	1452.81226	-261.24619	1412.51807	1455.68896	-303.79544	1100.46301	1443.11658	-142.44264	1333.23645	1436.67859	-103.60571	1167.03772	1556.64819	-308.87662	1239.57300	1290.83801	-201.35780	1370.59546	1227.02124	-231.94431	1172.52368	1215.35718	-233.83307	1049.31775	1209.28711	-192.67010	926.70245	1233.67871	-144.35123	816.94946	1194.90649	-184.55594	813.36230	1199.64819	-149.44394	736.43707	1605.15540	-171.11835	1358.26648	1675.97461	-131.64034	1140.30835	1683.82886	-91.04118	1034.84009	1674.62573	-38.90441	908.43884	1627.77051	10.20883	827.25079	1674.83740	-11.45160	811.84637	1656.51733	29.07170	751.39600	1331.89746	-146.68425	932.39893	1568.18164	-138.06158	932.64874	1384.35400	-308.35751	953.08221	1534.05518	-300.74057	968.14246	1284.75439	-145.42891	631.61401	1330.69922	-79.21446	468.77432	1327.95264	-68.60709	278.48129	1359.64551	-10.80430	74.50299	1401.54138	-38.08843	32.96198	1370.90747	143.00847	68.57763	1603.85754	-226.49763	642.85950	1566.81592	-244.02806	464.10403	1566.06897	-327.18655	289.13965	1511.63245	-393.91019	82.97626	1458.97473	-440.42712	56.14418	1499.96082	-256.01166	36.68134																		 
242	2.410	1383.08618	-88.32275	1609.96375	1516.32666	-94.48735	1615.74353	1383.18054	-218.23491	1571.37903	1514.39966	-219.37813	1576.87280	1451.76538	-254.29047	1411.78638	1454.42456	-296.74872	1099.74854	1442.37256	-135.35931	1332.55042	1436.17761	-96.41788	1166.39429	1555.42761	-302.10672	1238.86938	1289.94983	-193.89047	1369.76599	1226.74487	-224.40396	1171.45068	1215.49097	-226.12102	1048.12146	1209.76099	-185.94746	925.17743	1234.32617	-138.65558	815.00452	1195.59827	-178.90593	811.65637	1200.71899	-144.65660	734.27826	1604.38049	-164.55013	1357.60242	1674.99548	-125.55598	1139.44006	1682.69995	-85.14268	1033.84180	1673.15125	-33.07989	907.45294	1626.01331	16.00286	826.32324	1673.04211	-5.66992	810.84045	1654.48657	34.88109	750.41516	1331.32300	-139.16327	931.49335	1567.67651	-131.53699	932.02448	1383.09216	-300.96448	952.48059	1532.79639	-293.95764	967.50317	1285.60291	-139.19087	630.34308	1331.68311	-73.08119	467.67093	1327.96680	-60.51305	277.97498	1359.52271	-1.17870	74.57325	1401.26843	-28.01224	32.57875	1371.12610	152.87965	69.83066	1603.50452	-221.01518	642.45880	1566.79370	-239.23537	463.67981	1566.09631	-324.33109	289.42700	1511.83057	-393.30103	83.87936	1459.25708	-440.14105	57.60022	1500.09131	-255.82527	36.61350	1430.60767	-172.66864	1673.70618															 
